  <svg xmlns="http://www.w3.org/2000/svg" class="svg-calendar-skeleton-loading-2" viewBox="0 0 364.71 153.87">
      <defs>
        <linearGradient id="grad3" x1="0%" y1="0%" x2="100%" y2="0%">
          <stop offset="0%" style="stop-color:#d6d6d6;stop-opacity:1"></stop>
          <stop offset="10%" style="stop-color:#bfbfbf;stop-opacity:1"></stop>
          <stop offset="90%" style="stop-color:#bfbfbf;stop-opacity:1"></stop>
          <stop offset="100%" style="stop-color:#d6d6d6;stop-opacity:1"></stop>
        </linearGradient>
        <pattern id="pattern1" x="0" y="0" width="400%" height="100%" patternUnits="objectBoundingBox">
          <rect x="-150%" y="0" width="100%" height="100%" fill="url(#grad3)">
            <animate attributeType="XML"
                     attributeName="x"
                     from="-50%" to="50%"
                     dur="2s"
                     repeatCount="indefinite"/>
          </rect>
          <rect x="-350%" y="0" width="100%" height="100%" fill="url(#grad3)">
            <animate attributeType="XML"
                     attributeName="x"
                     from="-150%" to="-50%"
                     dur="2s"
                     repeatCount="indefinite"/>
          </rect>
        </pattern>
      </defs>
      <g id="Layer_2" data-name="Layer 2">
        <g id="Less_simple" data-name="Less simple">
          <g id="Months">
            <g id="Month">
              <rect class="month-title" y="38.58" width="56.13" height="46.79"/>
              <rect class="month" y="24.75" width="56.13" height="8.17"/>
            </g>
            <g id="Month-2" data-name="Month">
              <rect class="month-title" x="61.67" y="38.58" width="56.13" height="46.79"/>
              <rect class="month" x="61.67" y="24.75" width="56.13" height="8.17"/>
            </g>
            <g id="Month-3" data-name="Month">
              <rect class="month-title" x="123.58" y="38.58" width="56.13" height="46.79"/>
              <rect class="month" x="123.58" y="24.75" width="56.13" height="8.17"/>
            </g>
            <g id="Month-4" data-name="Month">
              <rect class="month-title" x="185.25" y="38.58" width="56.13" height="46.79"/>
              <rect class="month" x="185.25" y="24.75" width="56.13" height="8.17"/>
            </g>
            <g id="Month-5" data-name="Month">
              <rect class="month-title" x="246.92" y="38.58" width="56.13" height="46.79"/>
              <rect class="month" x="246.92" y="24.75" width="56.13" height="8.17"/>
            </g>
            <g id="Month-6" data-name="Month">
              <rect class="month-title" x="308.59" y="38.58" width="56.13" height="46.79"/>
              <rect class="month" x="308.59" y="24.75" width="56.13" height="8.17"/>
            </g>
            <g id="Month-7" data-name="Month">
              <rect class="month-title" x="308.59" y="107.08" width="56.13" height="46.79"/>
              <rect class="month" x="308.59" y="93.25" width="56.13" height="8.17"/>
            </g>
            <g id="Month-8" data-name="Month">
              <rect class="month-title" x="246.92" y="107.08" width="56.13" height="46.79"/>
              <rect class="month" x="246.92" y="93.25" width="56.13" height="8.17"/>
            </g>
            <g id="Month-9" data-name="Month">
              <rect class="month-title" x="185.25" y="107.08" width="56.13" height="46.79"/>
              <rect class="month" x="185.25" y="93.25" width="56.13" height="8.17"/>
            </g>
            <g id="Month-10" data-name="Month">
              <rect class="month-title" x="123.58" y="107.08" width="56.13" height="46.79"/>
              <rect class="month" x="123.58" y="93.25" width="56.13" height="8.17"/>
            </g>
            <g id="Month-11" data-name="Month">
              <rect class="month-title" x="61.67" y="107.08" width="56.13" height="46.79"/>
              <rect class="month" x="61.67" y="93.25" width="56.13" height="8.17"/>
            </g>
            <g id="Month-12" data-name="Month">
              <rect class="month-title" y="107.08" width="56.13" height="46.79"/>
              <rect class="month" y="93.25" width="56.13" height="8.17"/>
            </g>
          </g>
          <rect id="Title" class="month-title" x="147.95" width="69.06" height="13.74"/>
        </g>
      </g>
    </svg>